
<svg width="24px" height="195px" viewBox="0 0 24 195" version="1.1" xmlns="http://www.w3.org/2000/svg" xmlns:xlink="http://www.w3.org/1999/xlink">
    <g id="new_styles" stroke="none" stroke-width="1" fill="none" fill-rule="evenodd">
        <g id="callout-section-one" transform="translate(0.000000, -3.000000)">
            <path d="M-55.2068937,77.5886403 L-55.2068937,81.3889845 C-57.0636121,79.8376285 -58.9846433,79.0619621 -60.9700451,79.0619621 C-63.1576638,79.0619621 -65.000567,79.846808 -66.49881,81.4165232 C-68.0062447,82.9770589 -68.7599508,84.8863915 -68.7599508,87.1445783 C-68.7599508,89.3752263 -68.0062447,91.2570204 -66.49881,92.7900172 C-64.9913753,94.323014 -63.1438763,95.0895009 -60.9562577,95.0895009 C-59.8256817,95.0895009 -58.865166,94.9059112 -58.074682,94.5387263 C-57.6334816,94.3551339 -57.1762026,94.1072878 -56.7028314,93.7951807 C-56.2294601,93.4830736 -55.7308192,93.1067148 -55.2068937,92.6660929 L-55.2068937,96.535284 C-57.0452287,97.5725812 -58.9754515,98.091222 -60.99762,98.091222 C-64.0400645,98.091222 -66.6366737,97.0309917 -68.7875256,94.9104991 C-70.9291859,92.7716474 -72,90.1922125 -72,87.172117 C-72,84.4641287 -71.1038251,82.0499245 -69.3114485,79.929432 C-67.1054465,77.3315992 -64.2514742,76.0327022 -60.749446,76.0327022 C-58.8375776,76.0327022 -56.9900787,76.5513431 -55.2068937,77.5886403 Z M-56.235437,86.979346 C-56.235437,83.9867894 -55.1370483,81.416534 -52.940238,79.2685026 C-50.7526193,77.1204712 -48.1238397,76.0464716 -45.0538203,76.0464716 C-42.0205675,76.0464716 -39.4193625,77.1296507 -37.2501272,79.2960413 C-35.0717002,81.4624319 -33.9825031,84.0648156 -33.9825031,87.1032702 C-33.9825031,90.1600841 -35.076296,92.7532883 -37.2639146,94.8829604 C-39.460725,97.0218122 -42.1124834,98.091222 -45.2192696,98.091222 C-47.9675804,98.091222 -50.4355081,97.1411455 -52.6231268,95.2409639 C-55.0313456,93.1388306 -56.235437,90.3849855 -56.235437,86.979346 Z M-52.9953878,87.020654 C-52.9953878,89.3706371 -52.2049156,91.3029184 -50.6239475,92.8175559 C-49.052171,94.3321935 -47.2368425,95.0895009 -45.1779073,95.0895009 C-42.9443302,95.0895009 -41.0600651,94.3184242 -39.5250554,92.7762478 C-37.9900457,91.2157122 -37.2225523,89.3155591 -37.2225523,87.0757315 C-37.2225523,84.808365 -37.9808541,82.9082119 -39.4974805,81.3752151 C-41.0049152,79.8330388 -42.8707972,79.0619621 -45.0951826,79.0619621 C-47.3103763,79.0619621 -49.1808541,79.8330388 -50.7066721,81.3752151 C-52.2324902,82.8990323 -52.9953878,84.7808264 -52.9953878,87.020654 Z M-33.8253262,97.7056799 L-33.8253262,76.4457831 L-29.3581945,76.4457831 C-27.2165342,76.4457831 -25.5252914,76.6569113 -24.2844153,77.0791738 C-22.9516224,77.4922568 -21.7429353,78.1944873 -20.6583176,79.1858864 C-18.4615073,81.1870439 -17.3631186,83.8169659 -17.3631186,87.0757315 C-17.3631186,90.3436767 -18.507465,92.987368 -20.796192,95.0068847 C-21.9451514,96.016643 -23.1492428,96.7188735 -24.4085023,97.1135972 C-25.5850367,97.508321 -27.2533006,97.7056799 -29.4133443,97.7056799 L-33.8253262,97.7056799 Z M-30.6128519,94.6901893 L-29.1651703,94.6901893 C-27.7220773,94.6901893 -26.5225817,94.5387278 -25.5666475,94.2358003 C-24.6107133,93.9145136 -23.7467088,93.4050523 -22.9746081,92.707401 C-21.39364,91.2662005 -20.6031678,89.3889961 -20.6031678,87.0757315 C-20.6031678,84.7441077 -21.3844485,82.853134 -22.9470332,81.4027539 C-24.3533595,80.1084273 -26.4260511,79.4612737 -29.1651703,79.4612737 L-30.6128519,79.4612737 L-30.6128519,94.6901893 Z M-5.4590398,79.4612737 L-13.9934674,79.4612737 L-13.9934674,84.5697074 L-5.70721379,84.5697074 L-5.70721379,87.5851979 L-13.9934674,87.5851979 L-13.9934674,94.6901893 L-5.4590398,94.6901893 L-5.4590398,97.7056799 L-17.2059417,97.7056799 L-17.2059417,76.4457831 L-5.4590398,76.4457831 L-5.4590398,79.4612737 Z M3.24635207,85.8777969 L7.07926139,90.5043029 L7.20334838,90.3666093 C7.61697375,89.9168078 8.00761408,89.4761926 8.37528108,89.0447504 C8.74294808,88.6133082 9.09682226,88.1772828 9.43691424,87.7366609 L11.5326057,89.8846816 C11.2752388,90.2518664 10.9374498,90.6787124 10.5192286,91.1652324 C10.1010073,91.6517523 9.60236646,92.2117008 9.02329093,92.8450947 L12.9664998,97.7056799 L8.96814116,97.7056799 L6.84487485,95.1032702 C4.89623974,97.1136073 2.86950581,98.1187608 0.764612228,98.1187608 C-1.11968115,98.1187608 -2.71900861,97.5175046 -4.03341814,96.3149742 C-5.32025264,95.1032642 -5.96366024,93.6070083 -5.96366024,91.8261618 C-5.96366024,89.7056693 -4.94339962,87.9432084 -2.90284776,86.5387263 L-1.51031596,85.5886403 C-1.49193261,85.5794607 -1.45976223,85.5565119 -1.41380386,85.5197935 C-1.36784548,85.483075 -1.30350472,85.4325878 -1.22077965,85.3683305 C-2.62710592,83.8720522 -3.33025851,82.3987451 -3.33025851,80.9483649 C-3.33025851,79.516344 -2.86149012,78.3505495 -1.92393927,77.4509466 C-0.968005069,76.5513438 0.263660908,76.1015491 1.77109561,76.1015491 C3.23257194,76.1015491 4.44125907,76.5375745 5.39719327,77.4096386 C6.35312747,78.2817026 6.8310874,79.3832406 6.8310874,80.7142857 C6.8310874,81.6322478 6.56912859,82.4629911 6.04520312,83.2065404 C5.53046932,83.9500898 4.5975283,84.8404997 3.24635207,85.8777969 Z M0.69567501,87.6815835 L0.516438244,87.8055077 C-0.797971283,88.7142903 -1.69414615,89.4440592 -2.17211325,89.9948365 C-2.64088868,90.5456138 -2.87527288,91.128511 -2.87527288,91.7435456 C-2.87527288,92.6247893 -2.5213987,93.4325838 -1.81363972,94.1669535 C-1.07830572,94.8737844 -0.269450452,95.2271945 0.612950349,95.2271945 C1.85382648,95.2271945 3.2831105,94.4148102 4.9008453,92.7900172 L0.69567501,87.6815835 Z M1.38504719,83.6196213 L1.64700862,83.4268503 C2.09740069,83.0872043 2.46965795,82.7911659 2.76379155,82.5387263 C3.05792515,82.2862867 3.2693305,82.0728638 3.39801395,81.8984509 C3.6737642,81.558805 3.81163726,81.1411385 3.81163726,80.6454389 C3.81163726,80.085482 3.62321075,79.6310976 3.24635207,79.2822719 C2.8694934,78.9334463 2.36395885,78.7590361 1.72973328,78.7590361 C1.15065775,78.7590361 0.663506285,78.9380361 0.268264259,79.2960413 C-0.126977766,79.6356873 -0.324595815,80.0717128 -0.324595815,80.6041308 C-0.324595815,81.2283451 -0.0764243119,81.8433705 0.419926139,82.4492255 L1.21959787,83.4130809 C1.24717289,83.458979 1.30232211,83.5278251 1.38504719,83.6196213 Z M11.6346327,97.7056799 L11.6346327,76.4457831 L16.1017645,76.4457831 C18.2434247,76.4457831 19.9346676,76.6569113 21.1755437,77.0791738 C22.5083366,77.4922568 23.7170237,78.1944873 24.8016414,79.1858864 C26.9984517,81.1870439 28.0968404,83.8169659 28.0968404,87.0757315 C28.0968404,90.3436767 26.952494,92.987368 24.6637669,95.0068847 C23.5148076,96.016643 22.3107162,96.7188735 21.0514567,97.1135972 C19.8749223,97.508321 18.2066583,97.7056799 16.0466147,97.7056799 L11.6346327,97.7056799 Z M14.8471071,94.6901893 L16.2947887,94.6901893 C17.7378817,94.6901893 18.9373772,94.5387278 19.8933114,94.2358003 C20.8492456,93.9145136 21.7132501,93.4050523 22.4853508,92.707401 C24.0663189,91.2662005 24.8567911,89.3889961 24.8567911,87.0757315 C24.8567911,84.7441077 24.0755105,82.853134 22.5129257,81.4027539 C21.1065995,80.1084273 19.0339078,79.4612737 16.2947887,79.4612737 L14.8471071,79.4612737 L14.8471071,94.6901893 Z M40.0009192,79.4612737 L31.4664916,79.4612737 L31.4664916,84.5697074 L39.7527452,84.5697074 L39.7527452,87.5851979 L31.4664916,87.5851979 L31.4664916,94.6901893 L40.0009192,94.6901893 L40.0009192,97.7056799 L28.2540172,97.7056799 L28.2540172,76.4457831 L40.0009192,76.4457831 L40.0009192,79.4612737 Z M52.373771,79.6127367 L49.7679442,81.1549053 C49.2807854,80.3103802 48.8166128,79.7596112 48.3754124,79.5025818 C47.9158286,79.2088339 47.3229745,79.0619621 46.5968322,79.0619621 C45.7052397,79.0619621 44.965321,79.3143979 44.3770538,79.8192771 C43.7887866,80.3149767 43.4946574,80.9391815 43.4946574,81.6919105 C43.4946574,82.7292077 44.2667465,83.5645407 45.8109479,84.1979346 L47.9342142,85.0654045 C49.6622491,85.7630557 50.9260855,86.6144528 51.7257612,87.6196213 C52.5254369,88.6247899 52.9252688,89.8571356 52.9252688,91.3166954 C52.9252688,93.2719547 52.2726696,94.8875438 50.9674518,96.1635112 C49.6530423,97.4486582 48.0215444,98.091222 46.0729093,98.091222 C44.2253826,98.091222 42.6995875,97.5450428 41.495478,96.4526678 C40.309752,95.3602929 39.5698332,93.8227294 39.2756996,91.8399312 L42.5295363,91.1239243 C42.6766031,92.3723528 42.9339662,93.2352242 43.3016332,93.7125645 C43.9634338,94.6305267 44.9285452,95.0895009 46.1969963,95.0895009 C47.1988889,95.0895009 48.030723,94.7544497 48.6925236,94.0843373 C49.3543242,93.414225 49.6852195,92.5651228 49.6852195,91.5370052 C49.6852195,91.1239222 49.6277724,90.7452685 49.5128765,90.4010327 C49.3979805,90.0567969 49.2187456,89.7401047 48.9751662,89.4509466 C48.7315868,89.1617886 48.4167767,88.8909938 48.0307263,88.6385542 C47.644676,88.3861146 47.1850991,88.1451532 46.6519819,87.9156627 L44.5976529,87.0619621 C41.6838919,85.8318929 40.2270332,84.0327141 40.2270332,81.6643718 C40.2270332,80.0671177 40.8382705,78.7315028 42.0607632,77.6574871 C43.283256,76.5742918 44.8044554,76.0327022 46.6244071,76.0327022 C49.0785843,76.0327022 50.9950198,77.2260351 52.373771,79.6127367 Z M56.1294707,76.4457831 L56.1294707,97.7056799 L52.9169963,97.7056799 L52.9169963,76.4457831 L56.1294707,76.4457831 Z M68.3092983,86.6351119 L77.1056873,86.6351119 L77.1056873,87.3373494 C77.1056873,88.9346035 76.9172608,90.348244 76.5404021,91.5783133 C76.1727351,92.7165863 75.5523064,93.7814064 74.6790973,94.7728055 C72.7028871,96.9942739 70.1890017,98.1049914 67.1373656,98.1049914 C64.1592629,98.1049914 61.6086114,97.0309918 59.4853344,94.8829604 C57.3620575,92.7257494 56.300435,90.137135 56.300435,87.1170396 C56.300435,84.0326868 57.3804406,81.416534 59.5404842,79.2685026 C61.7005278,77.1112916 64.3293075,76.0327022 67.4269019,76.0327022 C69.0905951,76.0327022 70.6439649,76.3723431 72.0870579,77.0516351 C73.4658091,77.7309271 74.8215608,78.8324651 76.1543537,80.3562823 L73.8656381,82.545611 C72.1192198,80.2231668 69.991379,79.0619621 67.4820517,79.0619621 C65.2300913,79.0619621 63.3412304,79.8376285 61.8154124,81.3889845 C60.2895943,82.9128017 59.5266968,84.8221343 59.5266968,87.1170396 C59.5266968,89.4853819 60.3769139,91.4360222 62.0773738,92.9690189 C63.6675336,94.3918602 65.3909468,95.1032702 67.2476652,95.1032702 C68.8286333,95.1032702 70.2487258,94.5708602 71.5079852,93.5060241 C72.7672447,92.4320084 73.4703973,91.1468807 73.6174641,89.6506024 L68.3092983,89.6506024 L68.3092983,86.6351119 Z M77.2628642,97.7056799 L77.2628642,75 L92.7875256,91.2203098 L92.7875256,76.4457831 L96,76.4457831 L96,99 L80.4753385,82.8209983 L80.4753385,97.7056799 L77.2628642,97.7056799 Z" id="code&amp;design-futura24_medium" fill="#FFFFFF" transform="translate(12.000000, 87.000000) rotate(270.000000) translate(-12.000000, -87.000000) "></path>
            <g id="color-stripe" transform="translate(0.000000, 174.000000)">
                <rect id="CYAN" fill="#00F4D6" x="21" y="0" width="3" height="24"></rect>
                <rect id="TEAL" fill="#00FF8F" x="18" y="0" width="3" height="24"></rect>
                <rect id="YELLOW" fill="#D7FF00" x="15" y="0" width="3" height="24"></rect>
                <rect id="ORANGE" fill="#FFB800" x="12" y="-2.84217094e-14" width="3" height="24"></rect>
                <rect id="RED" fill="#FF0000" x="9" y="0" width="3" height="24"></rect>
                <rect id="PINK" fill="#FF007D" x="6" y="0" width="3" height="24"></rect>
                <rect id="PURPLE" fill="#8800FF" x="3" y="0" width="3" height="24"></rect>
                <rect id="BLUE" fill="#0063FF" x="0" y="0" width="3" height="24"></rect>
            </g>
        </g>
    </g>
</svg>
